# xmcd
#
# Track frame offsets:
#	150
#	91343
#	123688
#	153699
#	193059
#	232042
#	264524
#
# Disc length: 4346 seconds
#
# Revision: 2
# Processed by: cddbd v1.5.2PL0 Copyright (c) Steve Scherf et al.
# Submitted via: EZCDAudioConverter 1.3.4.1
#
DISCID=6110f807
DTITLE=The Orb - Adventures Beyond The Ultraworld 3/3
DYEAR=1991
DGENRE=
TTITLE0=A Huge Ever Growing Pulsating Brain That Rules From The Centre Of The 
TTITLE0=Ultraworld [Peel Session]
TTITLE1=Perpetual Dawn [Ultrabass II]
TTITLE2=Little Fluffy Clouds [Cumulo Nimbus Mix By Pal Joey]
TTITLE3=Back Side Of The Moon [Under Water Deep Space Mix By Steve Hillage]
TTITLE4=Outlands [Fountains Of Elisha Mix]
TTITLE5=A Huge Ever Growing Pulsating Brain That Rules From The Centre Of The 
TTITLE5=Ultraworld [Aubrey Mix MK 11 By Jimmy Cauty and Dr. Alex Paterson]
TTITLE6=Spanish Castles In Space [Extended Youth Mix]
EXTD=
EXTT0=
EXTT1=
EXTT2=
EXTT3=
EXTT4=
EXTT5=
EXTT6=
PLAYORDER=
